<svg width='24' height='24' viewBox='0 0 24 24' xmlns='http://www.w3.org/2000/svg' xmlns:xlink='http://www.w3.org/1999/xlink'><rect width='24' height='24' stroke='none' fill='#000000' opacity='0'/>


<g transform="matrix(0.45 0 0 0.45 12 12)" >
<path style="stroke: none; stroke-width: 1; stroke-dasharray: none; stroke-linecap: butt; stroke-dashoffset: 0; stroke-linejoin: miter; stroke-miterlimit: 4; fill: rgb(0,0,0); fill-rule: nonzero; opacity: 1;" transform=" translate(-24, -23.99)" d="M 24 2 C 19.029 2 15 6.029 15 11 C 15 13.663137 16.160286 16.050241 18 17.695312 L 18 19.5 C 18 24.902174 16.269251 27.368274 14.394531 29.414062 C 13.457171 30.436957 12.449578 31.321766 11.583984 32.392578 C 10.71839 33.46339 10 34.830469 10 36.480469 C 10 37.38694 10.248866 38.16025 10.599609 38.808594 C 9.6362029 39.542414 9 40.689916 9 41.980469 C 9 44.171751 10.808718 45.980469 13 45.980469 L 35 45.980469 C 37.191282 45.980469 39 44.171751 39 41.980469 C 39 40.689623 38.362465 39.542444 37.398438 38.808594 C 37.749181 38.16025 37.998047 37.38694 37.998047 36.480469 C 37.998047 34.830569 37.279446 33.463397 36.414062 32.392578 C 35.54868 31.32176 34.542589 30.43695 33.605469 29.414062 C 31.731229 27.368287 30 24.902261 30 19.5 L 30 17.695312 C 31.839714 16.050241 33 13.663137 33 11 C 33 6.029 28.971 2 24 2 z M 24 5 C 27.308 5 30 7.692 30 11 C 30 13.08474 28.929271 14.92419 27.310547 16 L 20.689453 16 C 19.070729 14.92419 18 13.08474 18 11 C 18 7.692 20.692 5 24 5 z M 21 19 L 27 19 L 27 19.476562 L 27 19.5 C 27 25.597739 29.267818 29.122182 31.392578 31.441406 C 32.454958 32.601018 33.447789 33.492537 34.082031 34.277344 C 34.716273 35.06215 34.998047 35.630369 34.998047 36.480469 C 34.998047 37.182219 34.69355 37.631816 34.318359 37.980469 L 13.679688 37.980469 C 13.304497 37.631816 13 37.182219 13 36.480469 C 13 35.630469 13.28161 35.062157 13.916016 34.277344 C 14.550422 33.492531 15.542829 32.601012 16.605469 31.441406 C 18.730749 29.122195 21 25.597826 21 19.5 L 21 19.476562 L 21 19 z M 13 40.980469 L 35 40.980469 C 35.569993 40.980469 36 41.411338 36 41.980469 C 36 42.551186 35.570718 42.980469 35 42.980469 L 13 42.980469 C 12.429282 42.980469 12 42.551186 12 41.980469 C 12 41.409751 12.429282 40.980469 13 40.980469 z" stroke-linecap="round" />
</g>
</svg>