<svg width='24' height='24' viewBox='0 0 24 24' xmlns='http://www.w3.org/2000/svg' xmlns:xlink='http://www.w3.org/1999/xlink'><rect width='24' height='24' stroke='none' fill='#000000' opacity='0'/>


<g transform="matrix(0.43 0 0 0.43 12 12)" >
<path style="stroke: none; stroke-width: 1; stroke-dasharray: none; stroke-linecap: butt; stroke-dashoffset: 0; stroke-linejoin: miter; stroke-miterlimit: 4; fill: rgb(0,0,0); fill-rule: nonzero; opacity: 1;" transform=" translate(-25.01, -26.5)" d="M 15 3 C 13.355469 3 12 4.355469 12 6 L 12 16 C 12 17.644531 13.355469 19 15 19 L 20 19 L 20 21.25 C 18.292969 21.792969 17 23.210938 17 25 C 17 26.363281 17.765625 27.503906 18.875 28.21875 C 17.941406 30.078125 16.753906 31.160156 15.6875 32.15625 C 15.125 32.683594 14.597656 33.179688 14.15625 33.78125 C 13.894531 34.136719 13.671875 34.542969 13.53125 35 L 13.34375 35 C 11.015625 35 9 36.742188 9 39 C 9 40.378906 9.757813 41.566406 10.875 42.28125 C 9.585938 43.632813 8.597656 45.054688 8.1875 46.40625 C 7.9375 47.222656 7.882813 48.109375 8.34375 48.875 C 8.804688 49.640625 9.726563 50 10.71875 50 L 39.28125 50 C 40.273438 50 41.226563 49.640625 41.6875 48.875 C 42.148438 48.109375 42.0625 47.222656 41.8125 46.40625 C 41.398438 45.054688 40.417969 43.632813 39.125 42.28125 C 40.242188 41.566406 41 40.378906 41 39 C 41 36.742188 38.984375 35 36.65625 35 L 36.46875 35 C 36.328125 34.546875 36.105469 34.136719 35.84375 33.78125 C 35.398438 33.179688 34.847656 32.6875 34.28125 32.15625 C 33.222656 31.167969 32.054688 30.0625 31.125 28.21875 C 32.234375 27.503906 33 26.363281 33 25 C 33 23.210938 31.707031 21.792969 30 21.25 L 30 19 L 35 19 C 36.644531 19 38 17.644531 38 16 L 38 6 C 38 4.355469 36.644531 3 35 3 L 33 3 C 32.449219 3 32 3.449219 32 4 L 32 8 C 32 8 31.972656 8.300781 31.84375 8.5625 C 31.714844 8.824219 31.667969 9 31 9 C 30.332031 9 30.285156 8.824219 30.15625 8.5625 C 30.027344 8.300781 30 8 30 8 L 30 4 C 30 3.449219 29.550781 3 29 3 L 21 3 C 20.449219 3 20 3.449219 20 4 L 20 8 C 20 8 19.972656 8.300781 19.84375 8.5625 C 19.714844 8.824219 19.667969 9 19 9 C 18.332031 9 18.285156 8.824219 18.15625 8.5625 C 18.027344 8.300781 18 8 18 8 L 18 4 C 18 3.449219 17.550781 3 17 3 Z M 15 5 L 16 5 L 16 8 C 16 8 15.972656 8.699219 16.34375 9.4375 C 16.714844 10.175781 17.667969 11 19 11 C 20.332031 11 21.285156 10.175781 21.65625 9.4375 C 22.027344 8.699219 22 8 22 8 L 22 5 L 28 5 L 28 8 C 28 8 27.972656 8.699219 28.34375 9.4375 C 28.714844 10.175781 29.667969 11 31 11 C 32.332031 11 33.285156 10.175781 33.65625 9.4375 C 34.027344 8.699219 34 8 34 8 L 34 5 L 35 5 C 35.558594 5 36 5.441406 36 6 L 36 16 C 36 16.558594 35.558594 17 35 17 L 29.1875 17 C 29.054688 16.972656 28.914063 16.972656 28.78125 17 L 21.1875 17 C 21.054688 16.972656 20.914063 16.972656 20.78125 17 L 15 17 C 14.441406 17 14 16.558594 14 16 L 14 6 C 14 5.441406 14.441406 5 15 5 Z M 22 19 L 28 19 L 28 21 L 22 21 Z M 21.5 23 L 28.5 23 C 29.96875 23 31 23.976563 31 25 C 31 26.023438 29.96875 27 28.5 27 L 21.5 27 C 20.03125 27 19 26.023438 19 25 C 19 23.976563 20.03125 23 21.5 23 Z M 20.71875 28.9375 C 20.976563 28.980469 21.230469 29 21.5 29 L 28.5 29 C 28.769531 29 29.023438 28.980469 29.28125 28.9375 C 30.382813 31.203125 31.816406 32.605469 32.90625 33.625 C 33.476563 34.15625 33.941406 34.589844 34.21875 34.96875 C 34.230469 34.984375 34.242188 34.988281 34.25 35 L 15.75 35 C 15.757813 34.988281 15.769531 34.984375 15.78125 34.96875 C 16.058594 34.59375 16.496094 34.15625 17.0625 33.625 C 18.15625 32.601563 19.609375 31.21875 20.71875 28.9375 Z M 13.34375 37 L 36.65625 37 C 38.011719 37 39 37.945313 39 39 C 39 40.054688 38.007813 41 36.65625 41 L 13.34375 41 C 11.992188 41 11 40.054688 11 39 C 11 37.945313 11.992188 37 13.34375 37 Z M 13 42.96875 C 13.117188 42.976563 13.226563 43 13.34375 43 L 36.65625 43 C 36.773438 43 36.882813 42.976563 37 42.96875 C 38.488281 44.359375 39.59375 45.980469 39.90625 47 C 40.066406 47.515625 39.996094 47.796875 39.96875 47.84375 C 39.941406 47.890625 39.867188 48 39.28125 48 L 10.71875 48 C 10.132813 48 10.058594 47.890625 10.03125 47.84375 C 10.003906 47.796875 9.9375 47.515625 10.09375 47 C 10.402344 45.980469 11.515625 44.359375 13 42.96875 Z" stroke-linecap="round" />
</g>
</svg>